# xmcd
#
# Track frame offsets:
#	183
#	19030
#	39575
#	57150
#	83730
#	105613
#	124793
#	141605
#	160790
#
# Disc length: 2393 seconds
# Revision: 0
# Processed by: cddbd v1.5.2PL0 Copyright (c) Steve Scherf et al.
# Submitted via: dBpowerAMP V12.0
#
DISCID=72095709
DTITLE=Robert Vaughn - Love Changes Everything
DYEAR=1991
DGENRE=Blues
TTITLE0=Love Changes Everything
TTITLE1=Somethin' for Nothin'
TTITLE2=My baby
TTITLE3=You're Not the Only One
TTITLE4=It's Your Life
TTITLE5=Already Over
TTITLE6=One Step at a Time
TTITLE7=Read You Like a Book
TTITLE8=Can It Be Done
EXTD=
EXTT0=
EXTT1=
EXTT2=
EXTT3=
EXTT4=
EXTT5=
EXTT6=
EXTT7=
EXTT8=
PLAYORDER=
